<mxfile host="app.diagrams.net" agent="Mozilla/5.0 (Windows NT 10.0; Win64; x64) AppleWebKit/537.36 (KHTML, like Gecko) Chrome/130.0.0.0 Safari/537.36" version="24.8.6">
  <diagram name="Сторінка-1" id="lfcm-YpRvEsReZC4IjNm">
    <mxGraphModel grid="1" page="1" gridSize="10" guides="1" tooltips="1" connect="1" arrows="1" fold="1" pageScale="1" pageWidth="827" pageHeight="1169" math="0" shadow="0">
      <root>
        <mxCell id="0" />
        <mxCell id="1" parent="0" />
        <mxCell id="EXi_1pYP0v4FzWLaTaNW-28" value="" style="edgeStyle=orthogonalEdgeStyle;rounded=0;orthogonalLoop=1;jettySize=auto;html=1;" edge="1" parent="1" source="EXi_1pYP0v4FzWLaTaNW-1" target="EXi_1pYP0v4FzWLaTaNW-27">
          <mxGeometry relative="1" as="geometry" />
        </mxCell>
        <mxCell id="EXi_1pYP0v4FzWLaTaNW-1" value="Start" style="ellipse;whiteSpace=wrap;html=1;fillColor=#d5e8d4;strokeColor=#82b366;" vertex="1" parent="1">
          <mxGeometry x="70" y="40" width="120" height="80" as="geometry" />
        </mxCell>
        <mxCell id="EXi_1pYP0v4FzWLaTaNW-6" style="edgeStyle=orthogonalEdgeStyle;rounded=0;orthogonalLoop=1;jettySize=auto;html=1;" edge="1" parent="1" source="EXi_1pYP0v4FzWLaTaNW-5" target="EXi_1pYP0v4FzWLaTaNW-7">
          <mxGeometry relative="1" as="geometry">
            <mxPoint x="130" y="470" as="targetPoint" />
          </mxGeometry>
        </mxCell>
        <mxCell id="EXi_1pYP0v4FzWLaTaNW-5" value="min(5, 3, 7, 1, 9, 5)" style="shape=parallelogram;perimeter=parallelogramPerimeter;whiteSpace=wrap;html=1;fixedSize=1;" vertex="1" parent="1">
          <mxGeometry x="62.5" y="340" width="135" height="60" as="geometry" />
        </mxCell>
        <mxCell id="EXi_1pYP0v4FzWLaTaNW-8" style="edgeStyle=orthogonalEdgeStyle;rounded=0;orthogonalLoop=1;jettySize=auto;html=1;" edge="1" parent="1" source="EXi_1pYP0v4FzWLaTaNW-7" target="EXi_1pYP0v4FzWLaTaNW-9">
          <mxGeometry relative="1" as="geometry">
            <mxPoint x="130" y="560" as="targetPoint" />
          </mxGeometry>
        </mxCell>
        <mxCell id="EXi_1pYP0v4FzWLaTaNW-7" value="min(10, 15, 20, 3, 8, 7, 9, 5, 13, 11, 2)" style="shape=parallelogram;perimeter=parallelogramPerimeter;whiteSpace=wrap;html=1;fixedSize=1;" vertex="1" parent="1">
          <mxGeometry x="15" y="450" width="230" height="50" as="geometry" />
        </mxCell>
        <mxCell id="EXi_1pYP0v4FzWLaTaNW-25" style="edgeStyle=orthogonalEdgeStyle;rounded=0;orthogonalLoop=1;jettySize=auto;html=1;" edge="1" parent="1" source="EXi_1pYP0v4FzWLaTaNW-9" target="EXi_1pYP0v4FzWLaTaNW-26">
          <mxGeometry relative="1" as="geometry">
            <mxPoint x="130" y="670" as="targetPoint" />
          </mxGeometry>
        </mxCell>
        <mxCell id="EXi_1pYP0v4FzWLaTaNW-9" value="min(12, 18, 25, 10, 7, 3, 21, 4, 9, 14, 8, 6, 2)" style="shape=parallelogram;perimeter=parallelogramPerimeter;whiteSpace=wrap;html=1;fixedSize=1;" vertex="1" parent="1">
          <mxGeometry y="530" width="260" height="60" as="geometry" />
        </mxCell>
        <mxCell id="EXi_1pYP0v4FzWLaTaNW-11" style="edgeStyle=orthogonalEdgeStyle;rounded=0;orthogonalLoop=1;jettySize=auto;html=1;" edge="1" parent="1" source="EXi_1pYP0v4FzWLaTaNW-10" target="EXi_1pYP0v4FzWLaTaNW-12">
          <mxGeometry relative="1" as="geometry">
            <mxPoint x="520" y="180" as="targetPoint" />
          </mxGeometry>
        </mxCell>
        <mxCell id="EXi_1pYP0v4FzWLaTaNW-10" value="min" style="ellipse;whiteSpace=wrap;html=1;fillColor=#d5e8d4;strokeColor=#82b366;" vertex="1" parent="1">
          <mxGeometry x="460" y="40" width="120" height="80" as="geometry" />
        </mxCell>
        <mxCell id="EXi_1pYP0v4FzWLaTaNW-13" style="edgeStyle=orthogonalEdgeStyle;rounded=0;orthogonalLoop=1;jettySize=auto;html=1;" edge="1" parent="1" source="EXi_1pYP0v4FzWLaTaNW-12" target="EXi_1pYP0v4FzWLaTaNW-14">
          <mxGeometry relative="1" as="geometry">
            <mxPoint x="520" y="260" as="targetPoint" />
          </mxGeometry>
        </mxCell>
        <mxCell id="EXi_1pYP0v4FzWLaTaNW-12" value="va_list args; va_start(args, count);&lt;br&gt;int minValue = va_arg(args, int)" style="rounded=0;whiteSpace=wrap;html=1;" vertex="1" parent="1">
          <mxGeometry x="460" y="150" width="120" height="60" as="geometry" />
        </mxCell>
        <mxCell id="EXi_1pYP0v4FzWLaTaNW-15" style="edgeStyle=orthogonalEdgeStyle;rounded=0;orthogonalLoop=1;jettySize=auto;html=1;" edge="1" parent="1" source="EXi_1pYP0v4FzWLaTaNW-14" target="EXi_1pYP0v4FzWLaTaNW-16">
          <mxGeometry relative="1" as="geometry">
            <mxPoint x="520" y="400" as="targetPoint" />
          </mxGeometry>
        </mxCell>
        <mxCell id="EXi_1pYP0v4FzWLaTaNW-14" value="for (int i = 1; i &amp;lt; count; ++i)" style="rhombus;whiteSpace=wrap;html=1;" vertex="1" parent="1">
          <mxGeometry x="440" y="260" width="160" height="90" as="geometry" />
        </mxCell>
        <mxCell id="EXi_1pYP0v4FzWLaTaNW-17" style="edgeStyle=orthogonalEdgeStyle;rounded=0;orthogonalLoop=1;jettySize=auto;html=1;" edge="1" parent="1" source="EXi_1pYP0v4FzWLaTaNW-16" target="EXi_1pYP0v4FzWLaTaNW-18">
          <mxGeometry relative="1" as="geometry">
            <mxPoint x="520" y="480" as="targetPoint" />
          </mxGeometry>
        </mxCell>
        <mxCell id="EXi_1pYP0v4FzWLaTaNW-16" value="int value = va_arg(args, int);" style="rounded=0;whiteSpace=wrap;html=1;" vertex="1" parent="1">
          <mxGeometry x="460" y="370" width="120" height="60" as="geometry" />
        </mxCell>
        <mxCell id="EXi_1pYP0v4FzWLaTaNW-19" style="edgeStyle=orthogonalEdgeStyle;rounded=0;orthogonalLoop=1;jettySize=auto;html=1;" edge="1" parent="1" source="EXi_1pYP0v4FzWLaTaNW-18" target="EXi_1pYP0v4FzWLaTaNW-20">
          <mxGeometry relative="1" as="geometry">
            <mxPoint x="520" y="600" as="targetPoint" />
          </mxGeometry>
        </mxCell>
        <mxCell id="EXi_1pYP0v4FzWLaTaNW-18" value="if (value &amp;lt; minValue)" style="rhombus;whiteSpace=wrap;html=1;" vertex="1" parent="1">
          <mxGeometry x="450" y="470" width="140" height="80" as="geometry" />
        </mxCell>
        <mxCell id="EXi_1pYP0v4FzWLaTaNW-21" style="edgeStyle=orthogonalEdgeStyle;rounded=0;orthogonalLoop=1;jettySize=auto;html=1;" edge="1" parent="1" source="EXi_1pYP0v4FzWLaTaNW-20">
          <mxGeometry relative="1" as="geometry">
            <mxPoint x="520" y="750" as="targetPoint" />
          </mxGeometry>
        </mxCell>
        <mxCell id="EXi_1pYP0v4FzWLaTaNW-20" value="minValue = value" style="rounded=0;whiteSpace=wrap;html=1;" vertex="1" parent="1">
          <mxGeometry x="460" y="570" width="120" height="60" as="geometry" />
        </mxCell>
        <mxCell id="EXi_1pYP0v4FzWLaTaNW-24" value="va_end(args); return minValue;" style="rounded=0;whiteSpace=wrap;html=1;" vertex="1" parent="1">
          <mxGeometry x="460" y="750" width="120" height="60" as="geometry" />
        </mxCell>
        <mxCell id="EXi_1pYP0v4FzWLaTaNW-26" value="End" style="ellipse;whiteSpace=wrap;html=1;fillColor=#f8cecc;strokeColor=#b85450;" vertex="1" parent="1">
          <mxGeometry x="70" y="630" width="120" height="80" as="geometry" />
        </mxCell>
        <mxCell id="EXi_1pYP0v4FzWLaTaNW-29" style="edgeStyle=orthogonalEdgeStyle;rounded=0;orthogonalLoop=1;jettySize=auto;html=1;entryX=0.5;entryY=0;entryDx=0;entryDy=0;" edge="1" parent="1" source="EXi_1pYP0v4FzWLaTaNW-27" target="EXi_1pYP0v4FzWLaTaNW-5">
          <mxGeometry relative="1" as="geometry" />
        </mxCell>
        <mxCell id="EXi_1pYP0v4FzWLaTaNW-27" value="min" style="shape=process;whiteSpace=wrap;html=1;backgroundOutline=1;" vertex="1" parent="1">
          <mxGeometry x="70" y="230" width="120" height="60" as="geometry" />
        </mxCell>
      </root>
    </mxGraphModel>
  </diagram>
</mxfile>
